<svg xmlns="http://www.w3.org/2000/svg" xmlns:xlink="http://www.w3.org/1999/xlink" width="500" zoomAndPan="magnify" viewBox="0 0 375 374.999991" height="500" preserveAspectRatio="xMidYMid meet" version="1.0"><defs><g/></defs><g fill="#ffffff" fill-opacity="1"><g transform="translate(4.764201, 280.274886)"><g><path d="M 99.75 -198.796875 L 220.496094 -198.796875 L 228.195312 -241.496094 L 52.847656 -241.496094 L 10.148438 0 L 188.996094 0 L 196.695312 -43.050781 L 72.449219 -43.050781 L 82.25 -99.75 L 195.296875 -99.75 L 202.996094 -142.449219 L 89.949219 -142.449219 Z M 99.75 -198.796875 "/></g></g></g><g fill="#ffffff" fill-opacity="1"><g transform="translate(158.571733, 358.725073)"><g><path d="M 158.398438 -219.195312 C 147.199219 -220.476562 138.558594 -220.796875 125.4375 -220.796875 L 48.320312 -220.796875 L 9.28125 0 L 59.199219 0 L 73.597656 -80.640625 L 103.039062 -80.640625 C 116.15625 -80.640625 124.796875 -80.957031 136.316406 -82.238281 C 173.4375 -86.398438 210.238281 -113.917969 210.238281 -163.199219 C 210.238281 -197.117188 186.558594 -215.996094 158.398438 -219.195312 Z M 126.078125 -120.636719 C 120.957031 -120 115.199219 -120 108.160156 -120 L 80.320312 -120 L 91.199219 -181.4375 L 119.039062 -181.4375 C 126.078125 -181.4375 132.15625 -181.4375 136.957031 -180.796875 C 149.117188 -179.515625 157.117188 -171.835938 157.117188 -157.117188 C 157.117188 -135.039062 144.316406 -122.878906 126.078125 -120.636719 Z M 126.078125 -120.636719 "/></g></g></g></svg>