<?xml version="1.0" encoding="utf-8"?>
<!-- Uploaded to: SVG Repo, www.svgrepo.com, Generator: SVG Repo Mixer Tools -->
<svg fill="#000000" width="800px" height="800px" viewBox="0 0 32 32" version="1.1" xmlns="http://www.w3.org/2000/svg">
<title>plesk</title>
<path d="M6.299 21.358v0.865h5.527v-0.865zM3.329 13.126c0.040-0.002 0.087-0.004 0.134-0.004 0.651 0 1.239 0.271 1.657 0.707l0.001 0.001c0.398 0.459 0.64 1.062 0.64 1.722 0 0.043-0.001 0.085-0.003 0.128l0-0.006c0.003 0.049 0.005 0.106 0.005 0.163 0 0.673-0.265 1.284-0.696 1.735l0.001-0.001c-0.454 0.413-1.059 0.666-1.724 0.666-0.047 0-0.093-0.001-0.14-0.004l0.006 0c-0.23-0-0.455-0.026-0.67-0.075l0.020 0.004c-0.262-0.056-0.48-0.117-0.692-0.19l0.043 0.013v-4.647c0.2-0.072 0.435-0.13 0.678-0.163l0.018-0.002c0.215-0.029 0.463-0.045 0.715-0.045 0.002 0 0.004 0 0.007 0h-0zM14.392 13.112c0.014-0 0.030-0.001 0.047-0.001 0.29 0 0.567 0.056 0.821 0.157l-0.015-0.005c0.234 0.092 0.434 0.228 0.597 0.399l0.001 0.001c0.153 0.169 0.274 0.371 0.351 0.593l0.004 0.012c0.079 0.223 0.125 0.479 0.125 0.747 0 0.005-0 0.010-0 0.015v-0.001h-3.979c0.073-0.533 0.294-1.004 0.62-1.382l-0.003 0.003c0.155-0.167 0.345-0.299 0.559-0.384l0.010-0.004c0.239-0.095 0.517-0.151 0.807-0.151 0.019 0 0.037 0 0.056 0.001l-0.003-0zM14.353 12.337c-0.005-0-0.010-0-0.015-0-0.405 0-0.792 0.075-1.149 0.211l0.022-0.007c-0.371 0.143-0.686 0.355-0.944 0.624l-0.001 0.001c-0.277 0.294-0.496 0.646-0.637 1.035l-0.007 0.021c-0.15 0.421-0.237 0.906-0.237 1.411 0 0.032 0 0.064 0.001 0.096l-0-0.005c-0 0.007-0 0.015-0 0.022 0 0.438 0.072 0.859 0.204 1.252l-0.008-0.028c0.136 0.405 0.337 0.754 0.595 1.054l-0.003-0.004c0.267 0.308 0.595 0.554 0.967 0.721l0.018 0.007c0.385 0.171 0.834 0.271 1.307 0.271 0.025 0 0.050-0 0.075-0.001l-0.004 0c0.029 0.001 0.063 0.001 0.098 0.001 0.489 0 0.956-0.095 1.384-0.266l-0.025 0.009c0.418-0.181 0.772-0.436 1.060-0.752l0.002-0.002-0.55-0.577c-0.231 0.261-0.516 0.468-0.838 0.604l-0.015 0.006c-0.301 0.121-0.649 0.191-1.014 0.191-0.013 0-0.025-0-0.037-0l0.002 0c-0.032 0.002-0.069 0.003-0.106 0.003-0.604 0-1.149-0.253-1.535-0.659l-0.001-0.001c-0.399-0.462-0.643-1.069-0.643-1.733 0-0.013 0-0.026 0-0.040l-0 0.002h4.922c0.009-0.099 0.014-0.214 0.014-0.33 0-0.844-0.271-1.625-0.732-2.26l0.008 0.011c-0.491-0.549-1.201-0.894-1.992-0.894-0.066 0-0.131 0.002-0.195 0.007l0.009-0.001zM3.249 12.337c-0.803 0.005-1.574 0.134-2.298 0.37l0.053-0.015v9.53h0.906v-3.399c0.179 0.051 0.41 0.101 0.644 0.139l0.038 0.005c0.208 0.035 0.448 0.055 0.693 0.055 0.46 0 0.904-0.070 1.321-0.201l-0.031 0.008c0.432-0.131 0.806-0.335 1.128-0.602l-0.005 0.004c0.333-0.281 0.601-0.627 0.787-1.019l0.008-0.018c0.191-0.418 0.302-0.906 0.302-1.42 0-0.032-0-0.063-0.001-0.094l0 0.005c0-0.009 0-0.021 0-0.032 0-0.471-0.092-0.92-0.259-1.33l0.008 0.024c-0.168-0.416-0.411-0.771-0.714-1.063l-0.001-0.001c-0.313-0.296-0.687-0.533-1.099-0.688l-0.023-0.008c-0.418-0.159-0.901-0.25-1.406-0.25-0.018 0-0.036 0-0.054 0l0.003-0zM21.603 12.286c-0.036-0.002-0.078-0.003-0.121-0.003-0.567 0-1.093 0.178-1.525 0.481l0.009-0.006c-0.387 0.326-0.631 0.811-0.631 1.353 0 0.287 0.068 0.557 0.19 0.797l-0.005-0.010c0.123 0.207 0.282 0.38 0.47 0.515l0.005 0.003c0.188 0.132 0.403 0.245 0.633 0.328l0.019 0.006c0.242 0.087 0.487 0.167 0.737 0.237q0.328 0.092 0.625 0.19c0.199 0.065 0.372 0.147 0.532 0.248l-0.009-0.006c0.144 0.091 0.263 0.207 0.355 0.343l0.003 0.004c0.082 0.135 0.131 0.298 0.131 0.472 0 0.012-0 0.024-0.001 0.036l0-0.002c-0.003 0.277-0.143 0.521-0.355 0.667l-0.003 0.002c-0.273 0.176-0.606 0.281-0.964 0.281-0.048 0-0.095-0.002-0.142-0.006l0.006 0c-0.013 0-0.029 0-0.045 0-0.741 0-1.398-0.359-1.806-0.913l-0.004-0.006-0.715 0.63c0.31 0.356 0.691 0.642 1.12 0.839l0.021 0.008c0.408 0.161 0.88 0.255 1.374 0.255 0.345 0 0.679-0.046 0.997-0.131l-0.027 0.006c0.296-0.080 0.555-0.206 0.783-0.372l-0.007 0.005c0.216-0.158 0.392-0.358 0.519-0.588l0.005-0.009c0.121-0.224 0.191-0.49 0.191-0.773 0-0.009-0-0.019-0-0.028l0 0.001c0.001-0.017 0.001-0.038 0.001-0.058 0-0.275-0.071-0.533-0.196-0.757l0.004 0.008c-0.132-0.217-0.299-0.398-0.497-0.541l-0.005-0.004c-0.196-0.143-0.421-0.264-0.661-0.355l-0.020-0.006q-0.368-0.137-0.742-0.256-0.302-0.092-0.584-0.19c-0.19-0.065-0.354-0.143-0.507-0.236l0.011 0.006c-0.137-0.083-0.251-0.188-0.341-0.312l-0.002-0.003c-0.082-0.118-0.13-0.264-0.13-0.422 0-0.009 0-0.017 0-0.026l-0 0.001c-0-0.005-0-0.012-0-0.018 0-0.244 0.109-0.463 0.28-0.611l0.001-0.001c0.235-0.161 0.525-0.257 0.838-0.257 0.051 0 0.102 0.003 0.152 0.008l-0.006-0.001c0.015-0 0.033-0.001 0.051-0.001 0.326 0 0.635 0.075 0.91 0.21l-0.012-0.005c0.296 0.162 0.543 0.376 0.738 0.632l0.004 0.006 0.014 0.012 0.675-0.617c-0.285-0.349-0.641-0.628-1.048-0.818l-0.018-0.008c-0.36-0.15-0.778-0.238-1.217-0.238-0.019 0-0.039 0-0.058 0.001l0.003-0zM26.612 15.58l3.098 3.387h1.273l-3.217-3.413 3.229-3.15h-1.233zM25.693 9.79v9.176h0.919v-9.175zM8.63 9.778v9.189h0.92v-9.19z"></path>
</svg>