<?xml version="1.0" encoding="utf-8"?>
<!-- Uploaded to: SVG Repo, www.svgrepo.com, Generator: SVG Repo Mixer Tools -->
<svg fill="#000000" width="800px" height="800px" viewBox="0 0 32 32" version="1.1" xmlns="http://www.w3.org/2000/svg">
<title>yoast</title>
<path d="M21.523 1.977h3.422l-7.567 20.269c-1.937 5.417-3.981 7.578-7.403 7.76v-2.649c1.651-0.276 2.973-1.442 3.472-2.978l0.009-0.031c0.21-0.524 0.331-1.131 0.331-1.767s-0.122-1.243-0.343-1.8l0.012 0.033-4.416-11.347h3.109l3.139 9.822zM20.829 1.004l-1.642 4.564h-11.407c-2.469 0.007-4.468 2.006-4.476 4.474v11.909c0.008 2.469 2.007 4.468 4.476 4.475h1.869q-0.112 0.020-0.225 0.036l-0.425 0.059v4.475h0.489c0.034 0.001 0.074 0.001 0.114 0.001 3.114 0 5.795-1.856 6.997-4.522l0.020-0.048h12.079v-16.383c-0.008-2.324-1.78-4.231-4.046-4.454l-0.018-0.001 1.71-4.584z"></path>
</svg>